HIERARCHY
ROOT Hips
{
	OFFSET -3.958830 18.904000 13.208200
	CHANNELS 6 Xposition Yposition Zposition Zrotation Yrotation Xrotation 
	JOINT LHipJoint
	{
		OFFSET 0.000000 0.000000 0.000000
		CHANNELS 3 Zrotation Yrotation Xrotation
		JOINT LeftUpLeg
		{
			OFFSET 1.800000 -1.400000 0.085000
			CHANNELS 3 Zrotation Yrotation Xrotation
			JOINT LeftLeg
			{
				OFFSET 2.215000 -6.000000 0.000000
				CHANNELS 3 Zrotation Yrotation Xrotation
				JOINT LeftFoot
				{
					OFFSET 2.500000 -6.900000 0.000000
					CHANNELS 3 Zrotation Yrotation Xrotation
					JOINT LeftToeBase
					{
						OFFSET 0.200000 -0.500000 1.950000
						CHANNELS 3 Zrotation Yrotation Xrotation
						End Site
						{
							OFFSET 0.000000 0.000000 0.000000
						}
					}
				}
			}
		}
	}
	JOINT RHipJoint
	{
		OFFSET 0.000000 0.000000 0.000000
		CHANNELS 3 Zrotation Yrotation Xrotation
		JOINT RightUpLeg
		{
			OFFSET -1.800000 -1.400000 0.085000
			CHANNELS 3 Zrotation Yrotation Xrotation
			JOINT RightLeg
			{
				OFFSET -2.215000 -6.000000 0.000000
				CHANNELS 3 Zrotation Yrotation Xrotation
				JOINT RightFoot
				{
					OFFSET -2.500000 -6.900000 0.000000
					CHANNELS 3 Zrotation Yrotation Xrotation
					JOINT RightToeBase
					{
						OFFSET -0.200000 -0.500000 1.950000
						CHANNELS 3 Zrotation Yrotation Xrotation
						End Site
						{
							OFFSET 0.000000 0.000000 0.000000
						}
					}
				}
			}
		}
	}
	JOINT LowerBack
	{
		OFFSET 0.000000 0.000000 0.000000
		CHANNELS 3 Zrotation Yrotation Xrotation
		JOINT Spine
		{
			OFFSET -0.087000 1.940000 -0.288900
			CHANNELS 3 Zrotation Yrotation Xrotation
			JOINT Spine1
			{
				OFFSET 0.000000 1.950000 0.060000
				CHANNELS 3 Zrotation Yrotation Xrotation
				JOINT Neck
				{
					OFFSET 0.000000 0.000000 0.000000
					CHANNELS 3 Zrotation Yrotation Xrotation
					JOINT Neck1
					{
						OFFSET 0.000000 1.600000 0.340000
						CHANNELS 3 Zrotation Yrotation Xrotation
						JOINT Head
						{
							OFFSET 0.000000 1.667000 -0.240000
							CHANNELS 3 Zrotation Yrotation Xrotation
							End Site
							{
								OFFSET 0.000000 0.000000 0.000000
							}
						}
					}
				}
				JOINT LeftShoulder
				{
					OFFSET 0.000000 0.000000 0.000000
					CHANNELS 3 Zrotation Yrotation Xrotation
					JOINT LeftArm
					{
						OFFSET 2.700000 1.550000 -0.730000
						CHANNELS 3 Zrotation Yrotation Xrotation
						JOINT LeftForeArm
						{
							OFFSET 5.450000 0.000000 0.000000
							CHANNELS 3 Zrotation Yrotation Xrotation
							JOINT LeftHand
							{
								OFFSET 3.450000 0.000000 0.000000
								CHANNELS 3 Zrotation Yrotation Xrotation
								JOINT LeftHandIndex1
								{
									OFFSET 0.750000 0.000000 0.000000
									CHANNELS 3 Zrotation Yrotation Xrotation
									End Site
									{
										OFFSET 0.000000 0.000000 0.000000
									}
								}
							}
						}
					}
				}
				JOINT RightShoulder
				{
					OFFSET 0.000000 0.000000 0.000000
					CHANNELS 3 Zrotation Yrotation Xrotation
					JOINT RightArm
					{
						OFFSET -2.700000 1.550000 -0.730000
						CHANNELS 3 Zrotation Yrotation Xrotation
						JOINT RightForeArm
						{
							OFFSET -5.450000 0.000000 0.000000
							CHANNELS 3 Zrotation Yrotation Xrotation
							JOINT RightHand
							{
								OFFSET -3.450000 0.000000 0.000000
								CHANNELS 3 Zrotation Yrotation Xrotation
								JOINT RightHandIndex1
								{
									OFFSET -0.750000 0.000000 0.000000
									CHANNELS 3 Zrotation Yrotation Xrotation
									End Site
									{
										OFFSET 0.000000 0.000000 0.000000
									}
								}
							}
						}
					}
				}
			}
		}
	}
}
MOTION
Frames: 7
Frame Time: 0.016667
0.203790 16.317620 -1.081660 -3.320356 24.216618 3.572178 -15.131919 12.576114 2.805498 10.769308 -2.308647 -22.684139 -6.665597 6.021079 15.875843 -0.906204 4.239742 3.080860 0.359020 0.039990 0.430400 18.341382 -11.336827 2.617160 -4.275892 0.278191 -8.960207 4.922576 -4.459383 9.851237 -0.129567 -3.685916 3.075091 0.305160 0.356650 0.193260 -4.153385 0.042966 -6.895439 6.042426 4.642053 3.697719 4.766235 3.832413 8.727700 -2.321250 -1.045327 -10.403587 -1.006092 2.377270 21.003043 -2.883340 3.808960 -9.248250 -13.908543 -15.281761 6.029905 -46.697158 -8.889146 -4.286591 -28.487726 -39.503712 6.067649 -3.932962 3.128434 0.394080 0.301550 -0.185880 0.055070 19.275995 17.959481 6.516611 59.497322 9.020506 -1.938297 -0.716410 8.623385 -1.028669 2.198996 -1.500654 -0.410610 0.260630 0.038640 -0.290460 
0.211040 16.315990 -1.076210 -3.336770 24.120137 3.685467 -15.143256 12.628236 2.813952 10.732683 -2.302291 -22.735645 -6.547132 6.016156 15.918057 -0.904577 4.244806 3.087030 0.346890 0.025220 0.411380 18.326937 -11.314624 2.598012 -4.235093 0.323160 -9.201901 4.773402 -4.442651 10.235219 -0.111844 -3.661369 3.090231 0.299870 0.374020 0.184830 -4.113762 -0.092988 -6.882138 5.763371 4.581410 3.704856 5.221239 3.753841 8.347726 -2.688205 -1.366229 -10.200379 -1.592352 2.514299 20.929758 -2.565960 3.565140 -9.013900 -13.589595 -14.385158 5.784810 -47.014590 -9.011218 -3.877211 -29.808287 -39.104331 6.489250 -3.938755 3.134774 0.389700 0.304080 -0.200140 0.060000 19.700413 17.195541 6.322244 58.770570 8.523956 -2.261567 -0.352730 9.368060 -1.091353 2.193687 -1.485862 -0.419150 0.271370 0.046160 -0.283290 
0.225090 16.313020 -1.066700 -3.419612 24.009832 3.922308 -15.159918 12.705179 2.830120 10.657522 -2.299608 -22.884257 -6.406647 6.004923 15.909980 -0.898785 4.254207 3.096882 0.323960 -0.000160 0.369980 18.309067 -11.261898 2.568809 -4.148390 0.398188 -9.586439 4.663465 -4.425334 10.771578 -0.080902 -3.631736 3.107934 0.291790 0.411770 0.174820 -4.058757 -0.332819 -6.855869 5.395595 4.435344 3.614390 6.031174 3.584382 7.681648 -3.414191 -2.059504 -9.781186 -2.837812 2.789459 20.717732 -1.925510 2.992780 -8.448850 -12.625247 -12.517837 5.330075 -48.178068 -9.410996 -3.010522 -31.841850 -38.242213 7.084153 -3.950947 3.158995 0.372160 0.312530 -0.229850 0.069650 20.197761 15.641897 5.883493 57.563031 7.757596 -2.782228 0.437489 10.773840 -1.186350 2.185533 -1.467220 -0.429720 0.288210 0.064040 -0.263650 
0.243970 16.310440 -1.054200 -3.354835 23.906945 4.370061 -15.182531 12.789615 2.851400 10.334087 -2.341742 -23.102947 -6.232458 5.947483 15.798890 -0.881870 4.224981 3.125992 0.312970 -0.010280 0.337070 18.287146 -11.191624 2.534233 -4.180133 0.478388 -10.041662 4.529585 -4.360870 11.150170 -0.048383 -3.589912 3.127192 0.290030 0.445350 0.163560 -3.985901 -0.622728 -6.812707 4.793707 4.261413 3.394915 7.039539 3.400590 6.826872 -4.298340 -2.949203 -9.201240 -4.408094 3.001888 20.291761 -1.394720 2.251030 -7.735120 -11.323462 -9.917264 4.776208 -50.105820 -9.900285 -1.873106 -33.850915 -37.112798 7.647438 -3.949371 3.203943 0.340710 0.318690 -0.259210 0.085870 20.668479 13.534542 5.265352 56.238484 6.830747 -3.494662 1.420402 12.955734 -1.301864 2.178587 -1.465536 -0.430720 0.299990 0.067520 -0.237080 
0.265750 16.310110 -1.044590 -3.289311 23.821624 4.753836 -15.202708 12.877239 2.881098 10.043660 -2.375137 -23.268608 -6.174100 5.926348 15.715215 -0.873038 4.207408 3.141750 0.302850 -0.025930 0.315340 18.263958 -11.125719 2.501196 -4.281982 0.572496 -10.534522 4.493166 -4.343342 11.622700 -0.021651 -3.546181 3.144142 0.282480 0.459300 0.150630 -3.920900 -0.906118 -6.784736 4.445531 3.985021 3.328107 7.682518 3.210161 5.899809 -4.954144 -3.902347 -8.645639 -6.139326 3.298423 20.130189 -1.127210 1.708940 -7.314860 -9.771920 -7.081047 4.322389 -52.711744 -10.148944 -0.845516 -34.929187 -36.102914 7.903973 -3.926304 3.240453 0.330810 0.312980 -0.278090 0.092610 20.400870 11.298692 4.617156 55.660171 6.139975 -4.325407 2.536071 15.906135 -1.340561 2.163955 -1.460211 -0.434980 0.305540 0.072220 -0.224390 
0.286370 16.308780 -1.033220 -3.151118 23.767840 5.181847 -15.216951 12.950347 2.910409 9.705774 -2.420536 -23.427606 -6.170592 5.925313 15.680888 -0.866310 4.202997 3.153978 0.281630 -0.054100 0.293280 18.248170 -11.075845 2.465485 -4.352597 0.660091 -11.013867 4.180988 -4.269302 12.022352 0.010774 -3.495488 3.166599 0.269530 0.477150 0.140610 -3.877837 -1.134750 -6.750458 4.274900 3.621004 3.203802 7.717304 3.014644 4.931227 -5.329625 -4.749962 -8.059383 -7.701879 3.684903 20.011169 -1.203410 1.430070 -6.697120 -8.219675 -4.053097 3.880837 -55.532065 -10.163462 0.119466 -34.763939 -34.939408 7.757278 -3.912790 3.258477 0.318890 0.317380 -0.299540 0.094070 19.524300 8.845995 3.888131 56.112079 5.791516 -5.042139 4.019369 19.379548 -1.237930 2.147158 -1.457689 -0.444030 0.309920 0.082100 -0.216310 
0.309040 16.308560 -1.022590 -2.922243 23.874124 5.689816 -15.224400 13.008886 2.935945 9.178622 -2.512349 -23.638477 -6.005291 5.840394 15.614702 -0.853806 4.156511 3.177496 0.275210 -0.069440 0.285810 18.239215 -11.044180 2.429069 -4.537689 0.755673 -11.541314 3.941545 -4.230055 12.486127 0.030466 -3.459160 3.171981 0.256350 0.483970 0.151820 -3.861349 -1.305234 -6.707971 4.342011 3.161811 3.034137 7.161294 2.767128 3.954939 -5.431744 -5.524867 -7.465880 -9.119594 4.126733 19.853458 -1.469630 1.302160 -6.132850 -6.527812 -0.745838 3.398181 -58.757454 -10.041020 1.039679 -33.514696 -33.616450 7.264343 -3.896563 3.285704 0.304210 0.320930 -0.306850 0.097500 17.912098 6.087704 3.098107 57.649302 5.770764 -5.500548 6.070431 23.225696 -0.896838 2.140037 -1.475182 -0.433670 0.294850 0.083130 -0.206240 
